<?xml version="1.0" encoding="UTF-8"?>
<svg xmlns="http://www.w3.org/2000/svg" width="120" height="120" viewBox="0 0 120 120" role="img" aria-label="ReleCloud rocket logo">
  <defs>
    <linearGradient id="lg" x1="0" x2="1" y1="0" y2="1">
      <stop offset="0%" stop-color="#6ee7b7" />
      <stop offset="100%" stop-color="#34d399" />
    </linearGradient>
    <filter id="s" x="-20%" y="-20%" width="140%" height="140%">
      <feDropShadow dx="0" dy="4" stdDeviation="6" flood-color="#000" flood-opacity="0.45" />
    </filter>
  </defs>

  <rect width="120" height="120" rx="18" ry="18" fill="#071025" />
  <circle cx="60" cy="60" r="46" fill="url(#lg)" opacity="0.06" />

  <g transform="translate(34,18) scale(0.78)" fill="#ffffff" filter="url(#s)">
    <path d="M33.6 2.4c2.2 0 4 1.4 4.6 3.5 0.3 0.9 0.8 2.8 0.8 5.3 0 4.7-1 8.8-2.6 12.4-1.7 3.8-4.1 7.6-7.1 11.3-2 2.5-4.2 4.8-6.6 6.8l-4.6 3.6-4.6-3.6c-1.9-1.5-3.8-3.2-5.6-5.0-3.1-3-5.6-6.8-7.3-10.7C0.8 21.1 0 16.8 0 12.1 0 6.3 3.5 2.4 7.7 2.4 11.3 2.4 15.2 4.1 18.2 6.4 21.5 8.9 26.5 2.4 33.6 2.4z" />
    <path d="M44 44c2 0 3.6 1.6 3.6 3.6S46 51 44 51s-3.6-1.6-3.6-3.6S42 44 44 44z" fill="#ffd580" opacity="0.95"/>
  </g>

  <g transform="translate(18,18)" fill="#ffffff" opacity="0.9">
    <circle cx="6" cy="6" r="1.2" />
    <circle cx="98" cy="20" r="1.6" />
  </g>
</svg>
